<?xml version="1.0" encoding="UTF-8"?>
<svg id="Laag_1" data-name="Laag 1" xmlns="http://www.w3.org/2000/svg" version="1.1" viewBox="0 0 421.28 228.72">
  <defs>
    <style>
      .cls-1 {
        fill: #f59b1a;
      }

      .cls-1, .cls-2, .cls-3 {
        stroke-width: 0px;
      }

      .cls-2 {
        fill: #164179;
      }

      .cls-3 {
        fill: #f3e600;
      }
    </style>
  </defs>
  <g>
    <path class="cls-3" d="M168.81,151.52l1.28-.28c2.96-.64,7.37-1.75,13.21-3.34,5.85-1.59,10.25-2.7,13.21-3.34.89-.19,1.42.09,1.58.85,1.21,5.63,2.03,9.84,2.09,14.1.02.89-.22,1.48-.71,1.76-.15.1-.82.28-2,.54-2.83.61-6.54,1.34-11.11,2.19-5.96,1.15-9.66,1.86-11.12,2.14l-14.82,2.99c-1.48.35-3.61.74-6.42,1.18-.99.04-1.58-.37-1.76-1.22-.77-3.59.39,1.24-1.04-5.95-1.43-7.19-2.53-12.58-3.3-16.17-.82-3.82-2.17-9.52-4.05-17.1-1.87-7.58-3.22-13.27-4.05-17.1-.16-.72.26-1.19,1.25-1.41s2.47-.48,4.45-.8c1.98-.32,3.45-.59,4.4-.79,1.09-.23,2.69-.64,4.8-1.22,2.12-.58,3.72-.98,4.8-1.22.49-.11.79.16.89.79l.09.65c.9,6,2.36,14.85,4.4,26.56.19,1.09.42,2.19.69,3.26l3.21,12.94Z"/>
    <path class="cls-1" d="M318.92,136.65c1.03,5.11.3,9.66-2.22,13.67-2.86,4.59-8.85,7.82-17.98,9.67-.69.14-1.7.33-3.01.57-1.33.27-2.32.47-2.96.6-10.24,2.07-16.38,3.1-18.41,3.08-.84,0-1.33-.35-1.47-1.05-.6-2.97-1.34-7.5-2.21-13.6-.87-6.09-1.61-10.64-2.22-13.64-.65-3.22-2.04-9.24-4.18-18.05-.54-2.26-1.39-5.64-2.53-10.15l-.16-.57c-.13-.52.24-.93,1.12-1.22s4.08-1,9.61-2.12c8.85-1.79,14.04-2.81,15.55-3.06,6.88-1.13,12.14-1.04,15.79.27,4.84,1.77,7.89,5.79,9.16,12.06.33,1.64.18,3.47-.45,5.51-.46,1.45-1.14,2.95-2.04,4.49-.8,1.35-1.2,1.98-1.22,1.89.04.19.46.43,1.27.7,2.17.72,4.05,2.17,5.65,4.36,1.44,1.96,2.4,4.17,2.9,6.61ZM296.27,116.84c-.48-2.39-2-3.73-4.54-4.02-1.42-.15-3.65.09-6.71.71s-4.45,1.13-4.36,1.58c.11.53.22,1.34.34,2.42s.23,1.9.34,2.42c.56,2.78,1.11,4.28,1.65,4.52.36.19,2.14-.04,5.36-.7,5.97-1.21,8.61-3.52,7.91-6.93ZM302.23,139.86c-.51-2.5-1.89-3.98-4.15-4.45-1.44-.29-3.67-.12-6.66.48-3.58.73-5.5,1.25-5.75,1.58s-.06,2.06.57,5.19c.66,3.28,1.21,5.05,1.64,5.32s2.46.04,6.1-.69c3-.61,5.06-1.27,6.19-1.99,1.86-1.22,2.55-3.03,2.06-5.45Z"/>
    <path class="cls-1" d="M131.58,116.57s-55.69-5.21-46.97,50.34c.92,5.89,2.88,11.59,6.1,16.6,7.25,11.29,23.5,24.39,55.73,1.44l-6.11-28.11s-26.4,15.51-26.63,3.98c-.28-14.21,23.44-18.66,23.44-18.66l-5.56-25.6Z"/>
    <path class="cls-3" d="M98.4,34.06S34.36,3.71,20.65,73.62c-1.45,7.41-1.6,15.05.06,22.41,3.74,16.58,17.4,39.22,65.72,25.88l4.91-36.11s-38.15,7.02-33.42-6.81c5.83-17.03,35.99-12.05,35.99-12.05l4.48-32.89Z"/>
    <path class="cls-3" d="M280.07,35.9l-41.54,7.62,11.91,56.94,40.08-7.58-2.77-14.24c-5.94,1.11-19.18,3.46-19.18,3.46l-1.23-6.73,8.31-1.46-2.67-14.45-8.23,1.51-1.41-7.05s12.08-2.07,19.38-3.55l-2.65-14.45Z"/>
    <path class="cls-2" d="M127.62,47.95c-14.69,0-26.6,13.76-26.6,30.73s11.91,30.73,26.6,30.73,26.6-13.76,26.6-30.73c0-16.97-11.91-30.73-26.6-30.73ZM127.62,84.92c-2.72,0-4.92-2.55-4.92-5.69,0-3.14,2.2-5.69,4.92-5.69s4.92,2.55,4.92,5.69c0,3.14-2.2,5.69-4.92,5.69Z"/>
    <path class="cls-1" d="M160.45,102.89V27.63c0-1.12,20.65-1.73,20.92-1.23l14.98,24.41c.54,1.03,13.32-24.51,13.32-24.51.27-.44,22.36.21,22.36,1.34v75.27c0,1.12-21.38,1.16-21.4.06l-.44-20.86c-.04-1.74-1.48-2.61-2.38-1.44l-11.57,15.18-11.98-14.76c-.94-1.15-2.38-.16-2.35,1.6l.43,20.15c.02,1.15-21.89,1.18-21.89.06Z"/>
    <path class="cls-2" d="M289.1,46.16l9.2,48.47s46.59,12.65,41.94-28.59c-3.61-32.05-51.88-23.28-51.13-19.89ZM318.89,67.42c.47,6.62-9.64,5.2-9.64,5.2l-1.84-8.39c-.12-.54,11.11-1.95,11.47,3.2Z"/>
    <path class="cls-2" d="M221.52,112.13c.74,4.09,2.03,10.7,3.24,18.9,1.21,8.2,2.29,13.53,3.02,17.62.88,4.86,1.02,8.72,3.23,9.82,3.29,1.62,3.03,1.14,6.79-.08,6.14-1.98,5.73-4.3,4.86-7.02-1.39-4.34-2.69-11.28-4.52-20.22-1.83-8.94-3.59-16.47-4.39-20.96-.17-.96,2.54-1.25,3.66-1.7,1.72-.7,4.57-.9,8.22-1.72,3.65-.82,6.4-1.39,8.22-1.72.9-.16,1.41.13,1.55.87.64,3.56,1.46,8.95,2.46,16.19,1,7.23,1.82,12.64,2.47,16.23.18.99.46,2.48.85,4.47s.67,3.48.85,4.47c1.42,7.89,1.45,13.45.08,16.66-2.52,5.89-10.69,10.07-24.53,12.56-6.25,1.13-11.15,1.51-14.7,1.16-5.66-.58-9.69-2.9-12.09-6.98-1.19-1.99-2.28-5.72-3.26-11.2-.23-1.27-.52-3.17-.88-5.69-.36-2.52-.65-4.4-.87-5.64-.65-3.59-1.79-8.94-3.42-16.06-1.63-7.12-2.77-12.46-3.41-16.02-.13-.74.12-1.17.77-1.29,1.89-.34,4.76-.78,8.61-1.31l13.2-1.35Z"/>
  </g>
  <path class="cls-1" d="M333.71,114.67c-2.68-.83-2.62-2.64-2-4.95,2.57-9.52,14.4-30.02,16.89-33.65.36-.55.6-1.02.73-1.52.19-.7-.02-1.51-.55-2.73-3.24-7.11-11.33-22.96-4.54-48.12.78-2.91,1.92-3.14,4.08-2.77,2.49.35,5.29,1.11,8.2,1.89,2.91.79,5.59,1.62,7.26,2.18,3.45,1.15,3.4,2.53,2.74,4.18-.84,1.92-2.92,6.85-4.33,12.06-2.65,9.82-1.36,18.56.85,21.96.51.89.93,1.33,1.63,1.52.5.14,1.08-.03,1.69-.3,3.87-2.4,9.62-12.14,12.06-21.16,1.65-6.12,1.89-9.39,2.35-11.09.41-1.5,1.37-1.89,2.83-1.71,1.53.31,4.16.91,6.77,1.61,3.21.87,6.49,1.86,8.44,2.6,3.15,1.07,3.67,1.96,2.83,5.07-4.22,15.64-12.48,23.52-20.36,31.18-7.06,7.02-13.86,13.9-17.22,26.33-.78,2.91-6.19,19.54-6.68,21.35-.3,1.1-1,2.1-3.33,1.58-2.43-.55-6.27-1.48-10.08-2.51-3.91-1.06-7.69-2.18-10.27-2.99Z"/>
</svg>