<?xml version="1.0" encoding="UTF-8"?>
<svg id="Laag_1" data-name="Laag 1" xmlns="http://www.w3.org/2000/svg" version="1.1" viewBox="0 0 100 47.69">
  <defs>
    <style>
      .cls-1 {
        fill: #f59b1a;
      }

      .cls-1, .cls-2, .cls-3 {
        stroke-width: 0px;
      }

      .cls-2 {
        fill: #164179;
      }

      .cls-3 {
        fill: #f3e600;
      }
    </style>
  </defs>
  <g>
    <path class="cls-3" d="M47.42,26.45l.08-.02c.18-.04.45-.11.81-.21s.63-.17.81-.21c.05-.01.09,0,.1.05.07.35.12.6.13.87,0,.05-.01.09-.04.11,0,0-.05.02-.12.03-.17.04-.4.08-.68.13-.37.07-.59.11-.68.13l-.91.18c-.09.02-.22.05-.39.07-.06,0-.1-.02-.11-.08-.05-.22.02.08-.06-.37s-.16-.77-.2-.99c-.05-.23-.13-.59-.25-1.05s-.2-.82-.25-1.05c0-.04.02-.07.08-.09s.15-.03.27-.05.21-.04.27-.05c.07-.01.17-.04.3-.07s.23-.06.3-.07c.03,0,.05,0,.05.05v.04c.06.37.15.91.28,1.63.01.07.03.13.04.2l.2.8Z"/>
    <path class="cls-1" d="M56.65,25.53c.06.31.02.59-.14.84-.18.28-.54.48-1.11.59-.04,0-.1.02-.18.03l-.18.04c-.63.13-1.01.19-1.13.19-.05,0-.08-.02-.09-.06-.04-.18-.08-.46-.14-.84s-.1-.65-.14-.84c-.04-.2-.13-.57-.26-1.11-.03-.14-.09-.35-.16-.62v-.04s0-.06.06-.08.25-.06.59-.13c.54-.11.86-.17.96-.19.42-.07.75-.06.97.02.3.11.49.36.56.74.02.1.01.21-.03.34-.03.09-.07.18-.13.28-.05.08-.07.12-.08.12,0,.01.03.03.08.04.13.04.25.13.35.27.09.12.15.26.18.41ZM55.26,24.32c-.03-.15-.12-.23-.28-.25-.09,0-.22,0-.41.04s-.27.07-.27.1c0,.03.01.08.02.15s.01.12.02.15c.03.17.07.26.1.28.02.01.13,0,.33-.04.37-.07.53-.22.49-.43ZM55.62,25.73c-.03-.15-.12-.24-.26-.27-.09-.02-.23,0-.41.03-.22.04-.34.08-.35.1s0,.13.04.32.07.31.1.33.15,0,.38-.04c.18-.04.31-.08.38-.12.11-.07.16-.19.13-.33Z"/>
    <path class="cls-1" d="M45.13,24.3s-3.42-.32-2.89,3.1c.06.36.18.71.37,1.02.45.69,1.45,1.5,3.43.09l-.38-1.73s-1.62.95-1.64.24c-.02-.87,1.44-1.15,1.44-1.15l-.34-1.57Z"/>
    <path class="cls-3" d="M43.09,19.23s-3.94-1.87-4.78,2.43c-.09.46-.1.93,0,1.38.23,1.02,1.07,2.41,4.04,1.59l.3-2.22s-2.35.43-2.05-.42c.36-1.05,2.21-.74,2.21-.74l.28-2.02Z"/>
    <path class="cls-3" d="M54.26,19.34l-2.55.47.73,3.5,2.46-.47-.17-.88c-.37.07-1.18.21-1.18.21l-.08-.41.51-.09-.16-.89-.51.09-.09-.43s.74-.13,1.19-.22l-.16-.89Z"/>
    <path class="cls-2" d="M44.89,20.08c-.9,0-1.64.85-1.64,1.89s.73,1.89,1.64,1.89,1.64-.85,1.64-1.89c0-1.04-.73-1.89-1.64-1.89ZM44.89,22.35c-.17,0-.3-.16-.3-.35s.14-.35.3-.35.3.16.3.35-.14.35-.3.35Z"/>
    <path class="cls-1" d="M46.91,23.46v-4.63c0-.07,1.27-.11,1.29-.08l.92,1.5c.03.06.82-1.51.82-1.51.02-.03,1.37.01,1.37.08v4.63c0,.07-1.31.07-1.32,0l-.03-1.28c0-.11-.09-.16-.15-.09l-.71.93-.74-.91c-.06-.07-.15-.01-.14.1l.03,1.24c0,.07-1.35.07-1.35,0Z"/>
    <path class="cls-2" d="M54.82,19.97l.57,2.98s2.86.78,2.58-1.76c-.22-1.97-3.19-1.43-3.14-1.22ZM56.65,21.28c.03.41-.59.32-.59.32l-.11-.52s.68-.12.71.2Z"/>
    <path class="cls-2" d="M50.66,24.03c.05.25.12.66.2,1.16s.14.83.19,1.08c.05.3.06.54.2.6.2.1.19.07.42,0,.38-.12.35-.26.3-.43-.09-.27-.17-.69-.28-1.24s-.22-1.01-.27-1.29c-.01-.06.16-.08.22-.1.11-.04.28-.06.51-.11s.39-.09.51-.11c.06,0,.09,0,.1.05.04.22.09.55.15,1s.11.78.15,1c.01.06.03.15.05.27s.04.21.05.27c.09.49.09.83,0,1.02-.15.36-.66.62-1.51.77-.38.07-.69.09-.9.07-.35-.04-.6-.18-.74-.43-.07-.12-.14-.35-.2-.69-.01-.08-.03-.19-.05-.35s-.04-.27-.05-.35c-.04-.22-.11-.55-.21-.99s-.17-.77-.21-.98c0-.05,0-.07.05-.08.12-.02.29-.05.53-.08l.81-.08Z"/>
  </g>
  <path class="cls-1" d="M57.56,24.18c-.16-.05-.16-.16-.12-.3.16-.59.89-1.85,1.04-2.07.02-.03.04-.06.05-.09.01-.04,0-.09-.03-.17-.2-.44-.7-1.41-.28-2.96.05-.18.12-.19.25-.17.15.02.33.07.5.12s.34.1.45.13c.21.07.21.16.17.26-.05.12-.18.42-.27.74-.16.6-.08,1.14.05,1.35.03.05.06.08.1.09.03,0,.07,0,.1-.02.24-.15.59-.75.74-1.3.1-.38.12-.58.14-.68.02-.09.08-.12.17-.11.09.02.26.06.42.1.2.05.4.11.52.16.19.07.23.12.17.31-.26.96-.77,1.45-1.25,1.92-.43.43-.85.85-1.06,1.62-.05.18-.38,1.2-.41,1.31-.02.07-.06.13-.2.1-.15-.03-.39-.09-.62-.15s-.47-.13-.63-.18Z"/>
</svg>